<svg viewBox="0 0 203 50" fill="none" xmlns="http://www.w3.org/2000/svg" id="splashscreen">
  <mask id="path-1-outside-1_69_55" maskUnits="userSpaceOnUse" x="0.199997" y="0" width="203" height="50" fill="black">
    <rect fill="white" x="0.199997" width="203" height="50" />
    <path d="M189.627 46.4615C187.126 46.7683 184.857 46.7544 182.821 46.4197C180.786 46.0851 179.079 45.6396 177.701 45.0832C176.32 44.507 175.361 44 174.824 43.5621C174.894 43.1505 175.068 42.5146 175.346 41.6544C175.623 40.7943 175.961 39.8561 176.361 38.8399C176.757 37.8039 177.163 36.8374 177.577 35.9403C178.01 35.0408 178.401 34.3682 178.75 33.9225C179.84 34.5948 180.977 35.2412 182.161 35.8616C183.343 36.4622 184.509 36.9337 185.659 37.2762C186.81 37.6187 187.841 37.734 188.755 37.622C189.39 37.544 189.937 37.4064 190.396 37.209C190.876 37.0092 191.236 36.7433 191.477 36.4114C191.716 36.0597 191.805 35.6357 191.745 35.1395C191.676 34.5836 191.268 34.0493 190.52 33.5366C189.79 33.0016 188.884 32.5182 187.804 32.0866C186.74 31.6326 185.666 31.2506 184.58 30.9405C182.969 30.453 181.433 29.8454 179.974 29.1177C178.514 28.39 177.286 27.4122 176.289 26.1845C175.29 24.9369 174.67 23.3304 174.429 21.3652C174.183 19.3602 174.571 17.5998 175.594 16.0839C176.635 14.5458 178.075 13.3113 179.916 12.3803C181.773 11.427 183.784 10.8177 185.948 10.5523C187.913 10.3112 190.012 10.3359 192.244 10.6263C194.476 10.9167 196.376 11.5401 197.944 12.4963C197.873 12.9079 197.672 13.5673 197.34 14.4745C197.028 15.3792 196.615 16.3668 196.102 17.4373C195.606 18.4855 195.053 19.4802 194.443 20.4215C193.598 19.7795 192.54 19.204 191.269 18.695C189.997 18.186 188.736 18.0082 187.486 18.1616C186.93 18.2298 186.381 18.3576 185.84 18.5448C185.316 18.7098 184.884 18.9644 184.544 19.3084C184.22 19.6301 184.089 20.0392 184.15 20.5354C184.208 21.0119 184.472 21.4329 184.94 21.7987C185.405 22.1446 186.059 22.4673 186.902 22.767C187.765 23.0642 188.812 23.3891 190.044 23.7417C191.13 24.0518 192.298 24.4526 193.547 24.9442C194.816 25.4334 196.022 26.0712 197.167 26.8577C198.328 27.622 199.31 28.5595 200.111 29.6702C200.932 30.7785 201.437 32.1068 201.627 33.6552C201.937 36.1763 201.568 38.3473 200.522 40.1682C199.493 41.9669 198.015 43.3874 196.088 44.4298C194.183 45.4896 192.029 46.1668 189.627 46.4615Z" />
    <path d="M172.766 39.05C172.186 39.77 171.456 40.46 170.576 41.12C169.716 41.76 168.696 42.32 167.516 42.8C166.356 43.26 165.026 43.63 163.526 43.91C162.046 44.19 160.386 44.33 158.546 44.33C155.526 44.33 152.826 43.76 150.446 42.62C148.086 41.48 146.236 39.79 144.896 37.55C143.576 35.31 142.916 32.51 142.916 29.15C142.916 25.71 143.596 22.71 144.956 20.15C146.316 17.59 148.236 15.61 150.716 14.21C153.196 12.79 156.096 12.08 159.416 12.08C163.616 12.08 166.936 13.22 169.376 15.5C171.816 17.76 173.066 20.93 173.126 25.01C173.126 25.79 173.096 26.48 173.036 27.08C172.996 27.68 172.906 28.33 172.766 29.03C172.466 29.01 171.796 28.99 170.756 28.97C169.736 28.95 168.586 28.93 167.306 28.91C166.026 28.89 164.836 28.87 163.736 28.85C162.636 28.83 161.866 28.82 161.426 28.82C159.806 28.82 158.256 28.89 156.776 29.03C155.296 29.17 154.096 29.32 153.176 29.48C153.176 29.78 153.196 30.08 153.236 30.38C153.276 30.68 153.346 30.96 153.446 31.22C153.686 31.92 154.086 32.51 154.646 32.99C155.206 33.47 155.886 33.84 156.686 34.1C157.486 34.34 158.336 34.46 159.236 34.46C159.976 34.46 160.666 34.39 161.306 34.25C161.966 34.09 162.596 33.86 163.196 33.56C163.796 33.26 164.366 32.91 164.906 32.51C165.446 32.11 165.986 31.66 166.526 31.16C166.646 31.26 166.976 31.58 167.516 32.12C168.056 32.66 168.666 33.33 169.346 34.13C170.046 34.93 170.706 35.77 171.326 36.65C171.966 37.51 172.446 38.31 172.766 39.05ZM153.596 23.36C154.336 23.22 155.256 23.1 156.356 23C157.476 22.9 158.776 22.85 160.256 22.85C161.076 22.85 161.826 22.87 162.506 22.91C163.186 22.93 163.666 22.95 163.946 22.97C163.946 22.63 163.886 22.25 163.766 21.83C163.606 21.23 163.306 20.68 162.866 20.18C162.446 19.68 161.916 19.28 161.276 18.98C160.636 18.66 159.886 18.5 159.026 18.5C157.886 18.5 156.916 18.75 156.116 19.25C155.336 19.75 154.736 20.38 154.316 21.14C153.896 21.88 153.656 22.62 153.596 23.36Z" />
    <path d="M145.85 42.82C145.25 43.38 144.12 43.93 142.46 44.47C140.82 45.03 139.03 45.31 137.09 45.31C134.59 45.31 132.68 44.75 131.36 43.63C130.06 42.49 129.17 40.89 128.69 38.83C128.23 36.77 128 34.34 128 31.54C128 29.22 128.02 26.94 128.06 24.7C128.1 22.44 128.15 20.24 128.21 18.1C128.29 15.96 128.37 13.9 128.45 11.92C128.53 9.92 128.62 8.02 128.72 6.22C128.82 4.42 128.92 2.74 129.02 1.18C130.62 1.06 132.09 1 133.43 1C134.29 1 135.14 1.02 135.98 1.06C136.84 1.1 137.78 1.17 138.8 1.27C138.7 3.13 138.58 5.14 138.44 7.3C138.32 9.44 138.2 11.61 138.08 13.81C137.96 15.99 137.85 18.09 137.75 20.11C137.65 22.11 137.57 23.9 137.51 25.48C137.45 27.06 137.42 28.3 137.42 29.2C137.42 30.4 137.47 31.51 137.57 32.53C137.69 33.55 137.92 34.37 138.26 34.99C138.62 35.59 139.15 35.89 139.85 35.89C140.51 35.89 141.05 35.76 141.47 35.5C141.89 35.22 142.23 34.86 142.49 34.42C142.63 34.7 142.86 35.24 143.18 36.04C143.52 36.84 143.88 37.73 144.26 38.71C144.64 39.67 144.98 40.54 145.28 41.32C145.58 42.1 145.77 42.6 145.85 42.82Z" />
    <path d="M127.012 37.5438C125.482 37.7497 123.503 37.9767 121.075 38.2248C118.646 38.4728 116.115 38.6879 113.481 38.8699C110.827 39.0533 108.21 39.1841 105.629 39.2622C103.069 39.339 100.912 39.3176 99.1595 39.1982L99.0975 31.7748C99.438 31.1899 99.9006 30.4863 100.485 29.6641C101.07 28.8418 101.73 27.9442 102.464 26.9712C103.199 25.9982 103.981 24.9819 104.81 23.9222C105.657 22.8412 106.525 21.7688 107.414 20.705C108.321 19.6198 109.202 18.5767 110.055 17.5755C110.926 16.5529 111.764 15.623 112.568 14.7855C112.169 14.8131 111.531 14.8672 110.655 14.9478C109.778 15.0285 108.793 15.1266 107.698 15.2424C106.602 15.3382 105.516 15.4333 104.44 15.5277C103.363 15.6022 102.425 15.667 101.627 15.7222C101.248 15.7484 100.869 15.7746 100.489 15.8008C100.13 15.8256 99.7911 15.849 99.4719 15.8711C99.1526 15.8932 98.8833 15.9118 98.6638 15.927C98.4443 15.9421 98.3047 15.9518 98.2448 15.9559L98.1074 7.87616C98.8085 7.8678 99.729 7.84427 100.869 7.80557C102.009 7.76687 103.239 7.72196 104.559 7.67085C105.897 7.59841 107.215 7.52735 108.513 7.45766C109.832 7.3866 111.009 7.31521 112.047 7.2435C114.162 7.09733 116.347 6.94633 118.601 6.7905C120.876 6.63329 122.802 6.51019 124.38 6.4212C124.429 6.55811 124.486 6.94511 124.55 7.58221C124.633 8.19798 124.712 8.90422 124.787 9.70093C124.88 10.4763 124.951 11.2132 125 11.9115C125.066 12.5885 125.11 13.0667 125.129 13.346C124.436 14.0555 123.663 14.9008 122.808 15.8821C121.954 16.8633 121.063 17.8972 120.136 18.9837C119.228 20.0689 118.322 21.164 117.416 22.2691C116.51 23.3742 115.661 24.4352 114.869 25.4522C114.096 26.4479 113.406 27.3376 112.798 28.1214C112.211 28.9038 111.763 29.5361 111.456 30.0185C111.896 30.0081 112.646 29.9763 113.705 29.9232C114.762 29.8501 115.65 29.7887 116.368 29.7391C117.526 29.6591 118.761 29.5437 120.073 29.3928C121.406 29.2405 122.658 29.0838 123.83 28.9227C125.02 28.7402 126.012 28.5914 126.806 28.4764C126.82 28.6759 126.846 29.1954 126.884 30.0347C126.922 30.8741 126.957 31.8239 126.99 32.8842C127.024 33.9444 127.041 34.9155 127.041 35.7976C127.062 36.6782 127.052 37.2603 127.012 37.5438Z" />
    <path d="M96.8048 48.1628C95.2624 48.112 93.2731 48.0073 90.837 47.8487C88.4008 47.6901 85.869 47.482 83.2416 47.2242C80.5944 46.9646 77.9917 46.659 75.4338 46.3076C72.8958 45.9582 70.7727 45.5791 69.0644 45.1704L70.2357 37.8397C70.6685 37.3195 71.2415 36.7025 71.9546 35.9887C72.6677 35.2749 73.4672 34.4992 74.3532 33.6617C75.2392 32.8242 76.1789 31.9518 77.1722 31.0444C78.1874 30.1191 79.2215 29.2057 80.2745 28.3042C81.3494 27.3847 82.3906 26.5022 83.3979 25.6565C84.4272 24.7928 85.4078 24.0148 86.3398 23.3225C85.9417 23.2835 85.3038 23.231 84.4261 23.1649C83.5483 23.0989 82.5601 23.0322 81.4615 22.9646C80.3648 22.8771 79.278 22.7906 78.2012 22.7051C77.1264 22.5996 76.1909 22.5079 75.3947 22.4298C75.0165 22.3927 74.6383 22.3556 74.2601 22.3185C73.9019 22.2833 73.5635 22.2501 73.245 22.2189C72.9265 22.1876 72.6578 22.1613 72.4389 22.1398C72.2199 22.1183 72.0806 22.1047 72.0209 22.0988L73.2267 14.1084C73.9195 14.2165 74.8312 14.3461 75.9618 14.4972C77.0925 14.6483 78.3127 14.8082 79.6225 14.9769C80.9541 15.1276 82.2659 15.2764 83.5577 15.4232C84.8694 15.572 86.0428 15.6971 87.0779 15.7986C89.1877 16.0056 91.3673 16.2194 93.6165 16.44C95.8856 16.6626 97.8054 16.861 99.3759 17.0351C99.402 17.1784 99.3938 17.5694 99.3512 18.2083C99.3305 18.8293 99.2911 19.5388 99.2329 20.3369C99.1965 21.1171 99.1442 21.8555 99.0759 22.5522C99.0294 23.2309 98.9925 23.7096 98.9651 23.9882C98.1643 24.5728 97.2611 25.278 96.2557 26.1038C95.2502 26.9296 94.2001 27.8013 93.1053 28.7188C92.0304 29.6382 90.9546 30.5676 89.8777 31.507C88.8009 32.4464 87.7876 33.3518 86.838 34.2232C85.9103 35.0767 85.0819 35.8395 84.3528 36.5115C83.6436 37.1855 83.0974 37.7348 82.7141 38.1594C83.15 38.2223 83.8945 38.3154 84.9475 38.4388C86.0024 38.5423 86.8882 38.6292 87.6047 38.6995C88.7592 38.8127 89.9962 38.9039 91.3157 38.9731C92.6552 39.0442 93.916 39.0975 95.0982 39.1331C96.3022 39.1507 97.3052 39.1687 98.1073 39.1871C98.0878 39.3861 98.027 39.9027 97.9251 40.7367C97.8232 41.5707 97.7006 42.5133 97.5573 43.5643C97.414 44.6153 97.2696 45.5758 97.124 46.4458C96.9982 47.3177 96.8919 47.89 96.8048 48.1628Z" />
    <path d="M70.3345 33.6525C69.823 34.4226 69.1593 35.1767 68.3435 35.9146C67.5458 36.6307 66.5815 37.2819 65.4504 37.868C64.3375 38.4324 63.047 38.9228 61.579 39.3392C60.1309 39.7537 58.4907 40.0453 56.6585 40.214C53.6512 40.4908 50.9103 40.1708 48.4358 39.2538C45.9812 38.3349 43.9841 36.8217 42.4444 34.7139C40.9246 32.6044 40.0106 29.8767 39.7026 26.5309C39.3872 23.1053 39.7893 20.0556 40.9089 17.3817C42.0284 14.7078 43.7588 12.5601 46.1 10.9387C48.4394 9.29728 51.2621 8.3244 54.5681 8.02002C58.7504 7.63496 62.161 8.46578 64.7997 10.5125C67.4366 12.5393 68.972 15.5813 69.4058 19.6386C69.4773 20.4153 69.5107 21.1052 69.506 21.7082C69.5212 22.3093 69.4911 22.9648 69.4159 23.6747C69.1153 23.6823 68.4463 23.7238 67.4088 23.7992C66.3913 23.8728 65.2443 23.9583 63.9679 24.0558C62.6914 24.1532 61.5046 24.2424 60.4074 24.3233C59.3102 24.4043 58.5425 24.4649 58.1044 24.5052C56.4912 24.6538 54.9542 24.8656 53.4932 25.1407C52.0323 25.4158 50.8511 25.6751 49.9496 25.9188C49.9771 26.2176 50.0246 26.5145 50.0919 26.8095C50.1592 27.1046 50.2546 27.377 50.378 27.6267C50.6812 28.3018 51.1336 28.8526 51.7352 29.2793C52.3369 29.7059 53.048 30.012 53.8684 30.1976C54.6871 30.3632 55.5445 30.4048 56.4407 30.3223C57.1776 30.2544 57.8582 30.1215 58.4827 29.9234C59.1253 29.7035 59.7315 29.4167 60.3015 29.063C60.8715 28.7093 61.407 28.3085 61.908 27.8606C62.4091 27.4128 62.9056 26.9152 63.3974 26.3678C63.5261 26.4564 63.884 26.7448 64.4713 27.233C65.0585 27.7212 65.7274 28.3325 66.4779 29.0668C67.2483 29.7992 67.9825 30.5752 68.6806 31.3946C69.3967 32.1923 69.948 32.945 70.3345 33.6525ZM49.8068 19.7861C50.5308 19.5788 51.436 19.375 52.5222 19.1746C53.6283 18.9723 54.9182 18.8033 56.392 18.6676C57.2085 18.5925 57.9572 18.5436 58.638 18.5211C59.317 18.4787 59.7968 18.4546 60.0774 18.4488C60.0463 18.1103 59.9517 17.7374 59.7937 17.3301C59.5794 16.7473 59.2302 16.2272 58.7462 15.7696C58.2821 15.3102 57.7177 14.9605 57.0529 14.7204C56.3862 14.4605 55.6247 14.3699 54.7684 14.4487C53.6332 14.5532 52.6902 14.8911 51.9394 15.4624C51.2085 16.0318 50.6688 16.7141 50.3202 17.5094C49.9698 18.2848 49.7987 19.0437 49.8068 19.7861Z" />
    <path d="M23.55 44.45C23.23 43.47 22.9 42.43 22.56 41.33C22.22 40.21 21.88 39.08 21.54 37.94C21.22 36.78 20.92 35.65 20.64 34.55C20.38 33.43 20.14 32.4 19.92 31.46C19.7 30.5 19.54 29.67 19.44 28.97L20.73 28.76C20.65 29.06 20.51 29.55 20.31 30.23C20.11 30.89 19.86 31.68 19.56 32.6C19.26 33.5 18.93 34.47 18.57 35.51C18.21 36.55 17.84 37.59 17.46 38.63C17.08 39.67 16.7 40.65 16.32 41.57C15.96 42.49 15.63 43.28 15.33 43.94L3.3 43.49C3.12 42.23 2.94 40.55 2.76 38.45C2.58 36.35 2.4 33.95 2.22 31.25C2.04 28.55 1.87 25.66 1.71 22.58C1.57 19.5 1.45 16.33 1.35 13.07C1.25 9.81001 1.2 6.57001 1.2 3.35001L12.96 3.80001C12.96 5.36001 12.93 7.17001 12.87 9.23001C12.83 11.29 12.77 13.43 12.69 15.65C12.63 17.87 12.57 20.03 12.51 22.13C12.45 24.23 12.39 26.11 12.33 27.77C12.29 29.41 12.26 30.67 12.24 31.55L11.64 32.24C11.86 31.66 12.12 30.88 12.42 29.9C12.72 28.9 13.03 27.79 13.35 26.57C13.69 25.33 14.03 24.04 14.37 22.7C14.71 21.34 15.02 20.01 15.3 18.71C15.6 17.41 15.84 16.21 16.02 15.11C16.22 13.99 16.35 13.05 16.41 12.29L24.18 12.11C24.2 12.55 24.27 13.33 24.39 14.45C24.53 15.55 24.71 16.86 24.93 18.38C25.15 19.88 25.38 21.45 25.62 23.09C25.88 24.73 26.14 26.31 26.4 27.83C26.68 29.35 26.94 30.69 27.18 31.85C27.44 33.01 27.67 33.84 27.87 34.34L26.4 34.4C26.76 32.38 27.08 29.99 27.36 27.23C27.64 24.47 27.87 21.62 28.05 18.68C28.25 15.72 28.39 12.91 28.47 10.25C28.57 7.59001 28.62 5.35001 28.62 3.53001L39.15 2.42001C39.15 5.84001 39 9.34001 38.7 12.92C38.42 16.48 38.05 19.94 37.59 23.3C37.13 26.64 36.66 29.71 36.18 32.51C35.72 35.31 35.29 37.67 34.89 39.59C34.51 41.49 34.24 42.76 34.08 43.4L23.55 44.45Z" />
  </mask>
  <path d="M189.627 46.4615C187.126 46.7683 184.857 46.7544 182.821 46.4197C180.786 46.0851 179.079 45.6396 177.701 45.0832C176.32 44.507 175.361 44 174.824 43.5621C174.894 43.1505 175.068 42.5146 175.346 41.6544C175.623 40.7943 175.961 39.8561 176.361 38.8399C176.757 37.8039 177.163 36.8374 177.577 35.9403C178.01 35.0408 178.401 34.3682 178.75 33.9225C179.84 34.5948 180.977 35.2412 182.161 35.8616C183.343 36.4622 184.509 36.9337 185.659 37.2762C186.81 37.6187 187.841 37.734 188.755 37.622C189.39 37.544 189.937 37.4064 190.396 37.209C190.876 37.0092 191.236 36.7433 191.477 36.4114C191.716 36.0597 191.805 35.6357 191.745 35.1395C191.676 34.5836 191.268 34.0493 190.52 33.5366C189.79 33.0016 188.884 32.5182 187.804 32.0866C186.74 31.6326 185.666 31.2506 184.58 30.9405C182.969 30.453 181.433 29.8454 179.974 29.1177C178.514 28.39 177.286 27.4122 176.289 26.1845C175.29 24.9369 174.67 23.3304 174.429 21.3652C174.183 19.3602 174.571 17.5998 175.594 16.0839C176.635 14.5458 178.075 13.3113 179.916 12.3803C181.773 11.427 183.784 10.8177 185.948 10.5523C187.913 10.3112 190.012 10.3359 192.244 10.6263C194.476 10.9167 196.376 11.5401 197.944 12.4963C197.873 12.9079 197.672 13.5673 197.34 14.4745C197.028 15.3792 196.615 16.3668 196.102 17.4373C195.606 18.4855 195.053 19.4802 194.443 20.4215C193.598 19.7795 192.54 19.204 191.269 18.695C189.997 18.186 188.736 18.0082 187.486 18.1616C186.93 18.2298 186.381 18.3576 185.84 18.5448C185.316 18.7098 184.884 18.9644 184.544 19.3084C184.22 19.6301 184.089 20.0392 184.15 20.5354C184.208 21.0119 184.472 21.4329 184.94 21.7987C185.405 22.1446 186.059 22.4673 186.902 22.767C187.765 23.0642 188.812 23.3891 190.044 23.7417C191.13 24.0518 192.298 24.4526 193.547 24.9442C194.816 25.4334 196.022 26.0712 197.167 26.8577C198.328 27.622 199.31 28.5595 200.111 29.6702C200.932 30.7785 201.437 32.1068 201.627 33.6552C201.937 36.1763 201.568 38.3473 200.522 40.1682C199.493 41.9669 198.015 43.3874 196.088 44.4298C194.183 45.4896 192.029 46.1668 189.627 46.4615Z" fill="white" />
  <path d="M172.766 39.05C172.186 39.77 171.456 40.46 170.576 41.12C169.716 41.76 168.696 42.32 167.516 42.8C166.356 43.26 165.026 43.63 163.526 43.91C162.046 44.19 160.386 44.33 158.546 44.33C155.526 44.33 152.826 43.76 150.446 42.62C148.086 41.48 146.236 39.79 144.896 37.55C143.576 35.31 142.916 32.51 142.916 29.15C142.916 25.71 143.596 22.71 144.956 20.15C146.316 17.59 148.236 15.61 150.716 14.21C153.196 12.79 156.096 12.08 159.416 12.08C163.616 12.08 166.936 13.22 169.376 15.5C171.816 17.76 173.066 20.93 173.126 25.01C173.126 25.79 173.096 26.48 173.036 27.08C172.996 27.68 172.906 28.33 172.766 29.03C172.466 29.01 171.796 28.99 170.756 28.97C169.736 28.95 168.586 28.93 167.306 28.91C166.026 28.89 164.836 28.87 163.736 28.85C162.636 28.83 161.866 28.82 161.426 28.82C159.806 28.82 158.256 28.89 156.776 29.03C155.296 29.17 154.096 29.32 153.176 29.48C153.176 29.78 153.196 30.08 153.236 30.38C153.276 30.68 153.346 30.96 153.446 31.22C153.686 31.92 154.086 32.51 154.646 32.99C155.206 33.47 155.886 33.84 156.686 34.1C157.486 34.34 158.336 34.46 159.236 34.46C159.976 34.46 160.666 34.39 161.306 34.25C161.966 34.09 162.596 33.86 163.196 33.56C163.796 33.26 164.366 32.91 164.906 32.51C165.446 32.11 165.986 31.66 166.526 31.16C166.646 31.26 166.976 31.58 167.516 32.12C168.056 32.66 168.666 33.33 169.346 34.13C170.046 34.93 170.706 35.77 171.326 36.65C171.966 37.51 172.446 38.31 172.766 39.05ZM153.596 23.36C154.336 23.22 155.256 23.1 156.356 23C157.476 22.9 158.776 22.85 160.256 22.85C161.076 22.85 161.826 22.87 162.506 22.91C163.186 22.93 163.666 22.95 163.946 22.97C163.946 22.63 163.886 22.25 163.766 21.83C163.606 21.23 163.306 20.68 162.866 20.18C162.446 19.68 161.916 19.28 161.276 18.98C160.636 18.66 159.886 18.5 159.026 18.5C157.886 18.5 156.916 18.75 156.116 19.25C155.336 19.75 154.736 20.38 154.316 21.14C153.896 21.88 153.656 22.62 153.596 23.36Z" fill="white" />
  <path d="M145.85 42.82C145.25 43.38 144.12 43.93 142.46 44.47C140.82 45.03 139.03 45.31 137.09 45.31C134.59 45.31 132.68 44.75 131.36 43.63C130.06 42.49 129.17 40.89 128.69 38.83C128.23 36.77 128 34.34 128 31.54C128 29.22 128.02 26.94 128.06 24.7C128.1 22.44 128.15 20.24 128.21 18.1C128.29 15.96 128.37 13.9 128.45 11.92C128.53 9.92 128.62 8.02 128.72 6.22C128.82 4.42 128.92 2.74 129.02 1.18C130.62 1.06 132.09 1 133.43 1C134.29 1 135.14 1.02 135.98 1.06C136.84 1.1 137.78 1.17 138.8 1.27C138.7 3.13 138.58 5.14 138.44 7.3C138.32 9.44 138.2 11.61 138.08 13.81C137.96 15.99 137.85 18.09 137.75 20.11C137.65 22.11 137.57 23.9 137.51 25.48C137.45 27.06 137.42 28.3 137.42 29.2C137.42 30.4 137.47 31.51 137.57 32.53C137.69 33.55 137.92 34.37 138.26 34.99C138.62 35.59 139.15 35.89 139.85 35.89C140.51 35.89 141.05 35.76 141.47 35.5C141.89 35.22 142.23 34.86 142.49 34.42C142.63 34.7 142.86 35.24 143.18 36.04C143.52 36.84 143.88 37.73 144.26 38.71C144.64 39.67 144.98 40.54 145.28 41.32C145.58 42.1 145.77 42.6 145.85 42.82Z" fill="white" />
  <path d="M127.012 37.5438C125.482 37.7497 123.503 37.9767 121.075 38.2248C118.646 38.4728 116.115 38.6879 113.481 38.8699C110.827 39.0533 108.21 39.1841 105.629 39.2622C103.069 39.339 100.912 39.3176 99.1595 39.1982L99.0975 31.7748C99.438 31.1899 99.9006 30.4863 100.485 29.6641C101.07 28.8418 101.73 27.9442 102.464 26.9712C103.199 25.9982 103.981 24.9819 104.81 23.9222C105.657 22.8412 106.525 21.7688 107.414 20.705C108.321 19.6198 109.202 18.5767 110.055 17.5755C110.926 16.5529 111.764 15.623 112.568 14.7855C112.169 14.8131 111.531 14.8672 110.655 14.9478C109.778 15.0285 108.793 15.1266 107.698 15.2424C106.602 15.3382 105.516 15.4333 104.44 15.5277C103.363 15.6022 102.425 15.667 101.627 15.7222C101.248 15.7484 100.869 15.7746 100.489 15.8008C100.13 15.8256 99.7911 15.849 99.4719 15.8711C99.1526 15.8932 98.8833 15.9118 98.6638 15.927C98.4443 15.9421 98.3047 15.9518 98.2448 15.9559L98.1074 7.87616C98.8085 7.8678 99.729 7.84427 100.869 7.80557C102.009 7.76687 103.239 7.72196 104.559 7.67085C105.897 7.59841 107.215 7.52735 108.513 7.45766C109.832 7.3866 111.009 7.31521 112.047 7.2435C114.162 7.09733 116.347 6.94633 118.601 6.7905C120.876 6.63329 122.802 6.51019 124.38 6.4212C124.429 6.55811 124.486 6.94511 124.55 7.58221C124.633 8.19798 124.712 8.90422 124.787 9.70093C124.88 10.4763 124.951 11.2132 125 11.9115C125.066 12.5885 125.11 13.0667 125.129 13.346C124.436 14.0555 123.663 14.9008 122.808 15.8821C121.954 16.8633 121.063 17.8972 120.136 18.9837C119.228 20.0689 118.322 21.164 117.416 22.2691C116.51 23.3742 115.661 24.4352 114.869 25.4522C114.096 26.4479 113.406 27.3376 112.798 28.1214C112.211 28.9038 111.763 29.5361 111.456 30.0185C111.896 30.0081 112.646 29.9763 113.705 29.9232C114.762 29.8501 115.65 29.7887 116.368 29.7391C117.526 29.6591 118.761 29.5437 120.073 29.3928C121.406 29.2405 122.658 29.0838 123.83 28.9227C125.02 28.7402 126.012 28.5914 126.806 28.4764C126.82 28.6759 126.846 29.1954 126.884 30.0347C126.922 30.8741 126.957 31.8239 126.99 32.8842C127.024 33.9444 127.041 34.9155 127.041 35.7976C127.062 36.6782 127.052 37.2603 127.012 37.5438Z" fill="white" />
  <path d="M96.8048 48.1628C95.2624 48.112 93.2731 48.0073 90.837 47.8487C88.4008 47.6901 85.869 47.482 83.2416 47.2242C80.5944 46.9646 77.9917 46.659 75.4338 46.3076C72.8958 45.9582 70.7727 45.5791 69.0644 45.1704L70.2357 37.8397C70.6685 37.3195 71.2415 36.7025 71.9546 35.9887C72.6677 35.2749 73.4672 34.4992 74.3532 33.6617C75.2392 32.8242 76.1789 31.9518 77.1722 31.0444C78.1874 30.1191 79.2215 29.2057 80.2745 28.3042C81.3494 27.3847 82.3906 26.5022 83.3979 25.6565C84.4272 24.7928 85.4078 24.0148 86.3398 23.3225C85.9417 23.2835 85.3038 23.231 84.4261 23.1649C83.5483 23.0989 82.5601 23.0322 81.4615 22.9646C80.3648 22.8771 79.278 22.7906 78.2012 22.7051C77.1264 22.5996 76.1909 22.5079 75.3947 22.4298C75.0165 22.3927 74.6383 22.3556 74.2601 22.3185C73.9019 22.2833 73.5635 22.2501 73.245 22.2189C72.9265 22.1876 72.6578 22.1613 72.4389 22.1398C72.2199 22.1183 72.0806 22.1047 72.0209 22.0988L73.2267 14.1084C73.9195 14.2165 74.8312 14.3461 75.9618 14.4972C77.0925 14.6483 78.3127 14.8082 79.6225 14.9769C80.9541 15.1276 82.2659 15.2764 83.5577 15.4232C84.8694 15.572 86.0428 15.6971 87.0779 15.7986C89.1877 16.0056 91.3673 16.2194 93.6165 16.44C95.8856 16.6626 97.8054 16.861 99.3759 17.0351C99.402 17.1784 99.3938 17.5694 99.3512 18.2083C99.3305 18.8293 99.2911 19.5388 99.2329 20.3369C99.1965 21.1171 99.1442 21.8555 99.0759 22.5522C99.0294 23.2309 98.9925 23.7096 98.9651 23.9882C98.1643 24.5728 97.2611 25.278 96.2557 26.1038C95.2502 26.9296 94.2001 27.8013 93.1053 28.7188C92.0304 29.6382 90.9546 30.5676 89.8777 31.507C88.8009 32.4464 87.7876 33.3518 86.838 34.2232C85.9103 35.0767 85.0819 35.8395 84.3528 36.5115C83.6436 37.1855 83.0974 37.7348 82.7141 38.1594C83.15 38.2223 83.8945 38.3154 84.9475 38.4388C86.0024 38.5423 86.8882 38.6292 87.6047 38.6995C88.7592 38.8127 89.9962 38.9039 91.3157 38.9731C92.6552 39.0442 93.916 39.0975 95.0982 39.1331C96.3022 39.1507 97.3052 39.1687 98.1073 39.1871C98.0878 39.3861 98.027 39.9027 97.9251 40.7367C97.8232 41.5707 97.7006 42.5133 97.5573 43.5643C97.414 44.6153 97.2696 45.5758 97.124 46.4458C96.9982 47.3177 96.8919 47.89 96.8048 48.1628Z" fill="white" />
  <path d="M70.3345 33.6525C69.823 34.4226 69.1593 35.1767 68.3435 35.9146C67.5458 36.6307 66.5815 37.2819 65.4504 37.868C64.3375 38.4324 63.047 38.9228 61.579 39.3392C60.1309 39.7537 58.4907 40.0453 56.6585 40.214C53.6512 40.4908 50.9103 40.1708 48.4358 39.2538C45.9812 38.3349 43.9841 36.8217 42.4444 34.7139C40.9246 32.6044 40.0106 29.8767 39.7026 26.5309C39.3872 23.1053 39.7893 20.0556 40.9089 17.3817C42.0284 14.7078 43.7588 12.5601 46.1 10.9387C48.4394 9.29728 51.2621 8.3244 54.5681 8.02002C58.7504 7.63496 62.161 8.46578 64.7997 10.5125C67.4366 12.5393 68.972 15.5813 69.4058 19.6386C69.4773 20.4153 69.5107 21.1052 69.506 21.7082C69.5212 22.3093 69.4911 22.9648 69.4159 23.6747C69.1153 23.6823 68.4463 23.7238 67.4088 23.7992C66.3913 23.8728 65.2443 23.9583 63.9679 24.0558C62.6914 24.1532 61.5046 24.2424 60.4074 24.3233C59.3102 24.4043 58.5425 24.4649 58.1044 24.5052C56.4912 24.6538 54.9542 24.8656 53.4932 25.1407C52.0323 25.4158 50.8511 25.6751 49.9496 25.9188C49.9771 26.2176 50.0246 26.5145 50.0919 26.8095C50.1592 27.1046 50.2546 27.377 50.378 27.6267C50.6812 28.3018 51.1336 28.8526 51.7352 29.2793C52.3369 29.7059 53.048 30.012 53.8684 30.1976C54.6871 30.3632 55.5445 30.4048 56.4407 30.3223C57.1776 30.2544 57.8582 30.1215 58.4827 29.9234C59.1253 29.7035 59.7315 29.4167 60.3015 29.063C60.8715 28.7093 61.407 28.3085 61.908 27.8606C62.4091 27.4128 62.9056 26.9152 63.3974 26.3678C63.5261 26.4564 63.884 26.7448 64.4713 27.233C65.0585 27.7212 65.7274 28.3325 66.4779 29.0668C67.2483 29.7992 67.9825 30.5752 68.6806 31.3946C69.3967 32.1923 69.948 32.945 70.3345 33.6525ZM49.8068 19.7861C50.5308 19.5788 51.436 19.375 52.5222 19.1746C53.6283 18.9723 54.9182 18.8033 56.392 18.6676C57.2085 18.5925 57.9572 18.5436 58.638 18.5211C59.317 18.4787 59.7968 18.4546 60.0774 18.4488C60.0463 18.1103 59.9517 17.7374 59.7937 17.3301C59.5794 16.7473 59.2302 16.2272 58.7462 15.7696C58.2821 15.3102 57.7177 14.9605 57.0529 14.7204C56.3862 14.4605 55.6247 14.3699 54.7684 14.4487C53.6332 14.5532 52.6902 14.8911 51.9394 15.4624C51.2085 16.0318 50.6688 16.7141 50.3202 17.5094C49.9698 18.2848 49.7987 19.0437 49.8068 19.7861Z" fill="white" />
  <path d="M23.55 44.45C23.23 43.47 22.9 42.43 22.56 41.33C22.22 40.21 21.88 39.08 21.54 37.94C21.22 36.78 20.92 35.65 20.64 34.55C20.38 33.43 20.14 32.4 19.92 31.46C19.7 30.5 19.54 29.67 19.44 28.97L20.73 28.76C20.65 29.06 20.51 29.55 20.31 30.23C20.11 30.89 19.86 31.68 19.56 32.6C19.26 33.5 18.93 34.47 18.57 35.51C18.21 36.55 17.84 37.59 17.46 38.63C17.08 39.67 16.7 40.65 16.32 41.57C15.96 42.49 15.63 43.28 15.33 43.94L3.3 43.49C3.12 42.23 2.94 40.55 2.76 38.45C2.58 36.35 2.4 33.95 2.22 31.25C2.04 28.55 1.87 25.66 1.71 22.58C1.57 19.5 1.45 16.33 1.35 13.07C1.25 9.81001 1.2 6.57001 1.2 3.35001L12.96 3.80001C12.96 5.36001 12.93 7.17001 12.87 9.23001C12.83 11.29 12.77 13.43 12.69 15.65C12.63 17.87 12.57 20.03 12.51 22.13C12.45 24.23 12.39 26.11 12.33 27.77C12.29 29.41 12.26 30.67 12.24 31.55L11.64 32.24C11.86 31.66 12.12 30.88 12.42 29.9C12.72 28.9 13.03 27.79 13.35 26.57C13.69 25.33 14.03 24.04 14.37 22.7C14.71 21.34 15.02 20.01 15.3 18.71C15.6 17.41 15.84 16.21 16.02 15.11C16.22 13.99 16.35 13.05 16.41 12.29L24.18 12.11C24.2 12.55 24.27 13.33 24.39 14.45C24.53 15.55 24.71 16.86 24.93 18.38C25.15 19.88 25.38 21.45 25.62 23.09C25.88 24.73 26.14 26.31 26.4 27.83C26.68 29.35 26.94 30.69 27.18 31.85C27.44 33.01 27.67 33.84 27.87 34.34L26.4 34.4C26.76 32.38 27.08 29.99 27.36 27.23C27.64 24.47 27.87 21.62 28.05 18.68C28.25 15.72 28.39 12.91 28.47 10.25C28.57 7.59001 28.62 5.35001 28.62 3.53001L39.15 2.42001C39.15 5.84001 39 9.34001 38.7 12.92C38.42 16.48 38.05 19.94 37.59 23.3C37.13 26.64 36.66 29.71 36.18 32.51C35.72 35.31 35.29 37.67 34.89 39.59C34.51 41.49 34.24 42.76 34.08 43.4L23.55 44.45Z" fill="white" />
  <path d="M189.627 46.4615C187.126 46.7683 184.857 46.7544 182.821 46.4197C180.786 46.0851 179.079 45.6396 177.701 45.0832C176.32 44.507 175.361 44 174.824 43.5621C174.894 43.1505 175.068 42.5146 175.346 41.6544C175.623 40.7943 175.961 39.8561 176.361 38.8399C176.757 37.8039 177.163 36.8374 177.577 35.9403C178.01 35.0408 178.401 34.3682 178.75 33.9225C179.84 34.5948 180.977 35.2412 182.161 35.8616C183.343 36.4622 184.509 36.9337 185.659 37.2762C186.81 37.6187 187.841 37.734 188.755 37.622C189.39 37.544 189.937 37.4064 190.396 37.209C190.876 37.0092 191.236 36.7433 191.477 36.4114C191.716 36.0597 191.805 35.6357 191.745 35.1395C191.676 34.5836 191.268 34.0493 190.52 33.5366C189.79 33.0016 188.884 32.5182 187.804 32.0866C186.74 31.6326 185.666 31.2506 184.58 30.9405C182.969 30.453 181.433 29.8454 179.974 29.1177C178.514 28.39 177.286 27.4122 176.289 26.1845C175.29 24.9369 174.67 23.3304 174.429 21.3652C174.183 19.3602 174.571 17.5998 175.594 16.0839C176.635 14.5458 178.075 13.3113 179.916 12.3803C181.773 11.427 183.784 10.8177 185.948 10.5523C187.913 10.3112 190.012 10.3359 192.244 10.6263C194.476 10.9167 196.376 11.5401 197.944 12.4963C197.873 12.9079 197.672 13.5673 197.34 14.4745C197.028 15.3792 196.615 16.3668 196.102 17.4373C195.606 18.4855 195.053 19.4802 194.443 20.4215C193.598 19.7795 192.54 19.204 191.269 18.695C189.997 18.186 188.736 18.0082 187.486 18.1616C186.93 18.2298 186.381 18.3576 185.84 18.5448C185.316 18.7098 184.884 18.9644 184.544 19.3084C184.22 19.6301 184.089 20.0392 184.15 20.5354C184.208 21.0119 184.472 21.4329 184.94 21.7987C185.405 22.1446 186.059 22.4673 186.902 22.767C187.765 23.0642 188.812 23.3891 190.044 23.7417C191.13 24.0518 192.298 24.4526 193.547 24.9442C194.816 25.4334 196.022 26.0712 197.167 26.8577C198.328 27.622 199.31 28.5595 200.111 29.6702C200.932 30.7785 201.437 32.1068 201.627 33.6552C201.937 36.1763 201.568 38.3473 200.522 40.1682C199.493 41.9669 198.015 43.3874 196.088 44.4298C194.183 45.4896 192.029 46.1668 189.627 46.4615Z" stroke="#8B33AA" stroke-width="2" mask="url(#path-1-outside-1_69_55)" />
  <path d="M172.766 39.05C172.186 39.77 171.456 40.46 170.576 41.12C169.716 41.76 168.696 42.32 167.516 42.8C166.356 43.26 165.026 43.63 163.526 43.91C162.046 44.19 160.386 44.33 158.546 44.33C155.526 44.33 152.826 43.76 150.446 42.62C148.086 41.48 146.236 39.79 144.896 37.55C143.576 35.31 142.916 32.51 142.916 29.15C142.916 25.71 143.596 22.71 144.956 20.15C146.316 17.59 148.236 15.61 150.716 14.21C153.196 12.79 156.096 12.08 159.416 12.08C163.616 12.08 166.936 13.22 169.376 15.5C171.816 17.76 173.066 20.93 173.126 25.01C173.126 25.79 173.096 26.48 173.036 27.08C172.996 27.68 172.906 28.33 172.766 29.03C172.466 29.01 171.796 28.99 170.756 28.97C169.736 28.95 168.586 28.93 167.306 28.91C166.026 28.89 164.836 28.87 163.736 28.85C162.636 28.83 161.866 28.82 161.426 28.82C159.806 28.82 158.256 28.89 156.776 29.03C155.296 29.17 154.096 29.32 153.176 29.48C153.176 29.78 153.196 30.08 153.236 30.38C153.276 30.68 153.346 30.96 153.446 31.22C153.686 31.92 154.086 32.51 154.646 32.99C155.206 33.47 155.886 33.84 156.686 34.1C157.486 34.34 158.336 34.46 159.236 34.46C159.976 34.46 160.666 34.39 161.306 34.25C161.966 34.09 162.596 33.86 163.196 33.56C163.796 33.26 164.366 32.91 164.906 32.51C165.446 32.11 165.986 31.66 166.526 31.16C166.646 31.26 166.976 31.58 167.516 32.12C168.056 32.66 168.666 33.33 169.346 34.13C170.046 34.93 170.706 35.77 171.326 36.65C171.966 37.51 172.446 38.31 172.766 39.05ZM153.596 23.36C154.336 23.22 155.256 23.1 156.356 23C157.476 22.9 158.776 22.85 160.256 22.85C161.076 22.85 161.826 22.87 162.506 22.91C163.186 22.93 163.666 22.95 163.946 22.97C163.946 22.63 163.886 22.25 163.766 21.83C163.606 21.23 163.306 20.68 162.866 20.18C162.446 19.68 161.916 19.28 161.276 18.98C160.636 18.66 159.886 18.5 159.026 18.5C157.886 18.5 156.916 18.75 156.116 19.25C155.336 19.75 154.736 20.38 154.316 21.14C153.896 21.88 153.656 22.62 153.596 23.36Z" stroke="#8B33AA" stroke-width="2" mask="url(#path-1-outside-1_69_55)" />
  <path d="M145.85 42.82C145.25 43.38 144.12 43.93 142.46 44.47C140.82 45.03 139.03 45.31 137.09 45.31C134.59 45.31 132.68 44.75 131.36 43.63C130.06 42.49 129.17 40.89 128.69 38.83C128.23 36.77 128 34.34 128 31.54C128 29.22 128.02 26.94 128.06 24.7C128.1 22.44 128.15 20.24 128.21 18.1C128.29 15.96 128.37 13.9 128.45 11.92C128.53 9.92 128.62 8.02 128.72 6.22C128.82 4.42 128.92 2.74 129.02 1.18C130.62 1.06 132.09 1 133.43 1C134.29 1 135.14 1.02 135.98 1.06C136.84 1.1 137.78 1.17 138.8 1.27C138.7 3.13 138.58 5.14 138.44 7.3C138.32 9.44 138.2 11.61 138.08 13.81C137.96 15.99 137.85 18.09 137.75 20.11C137.65 22.11 137.57 23.9 137.51 25.48C137.45 27.06 137.42 28.3 137.42 29.2C137.42 30.4 137.47 31.51 137.57 32.53C137.69 33.55 137.92 34.37 138.26 34.99C138.62 35.59 139.15 35.89 139.85 35.89C140.51 35.89 141.05 35.76 141.47 35.5C141.89 35.22 142.23 34.86 142.49 34.42C142.63 34.7 142.86 35.24 143.18 36.04C143.52 36.84 143.88 37.73 144.26 38.71C144.64 39.67 144.98 40.54 145.28 41.32C145.58 42.1 145.77 42.6 145.85 42.82Z" stroke="#8B33AA" stroke-width="2" mask="url(#path-1-outside-1_69_55)" />
  <path d="M127.012 37.5438C125.482 37.7497 123.503 37.9767 121.075 38.2248C118.646 38.4728 116.115 38.6879 113.481 38.8699C110.827 39.0533 108.21 39.1841 105.629 39.2622C103.069 39.339 100.912 39.3176 99.1595 39.1982L99.0975 31.7748C99.438 31.1899 99.9006 30.4863 100.485 29.6641C101.07 28.8418 101.73 27.9442 102.464 26.9712C103.199 25.9982 103.981 24.9819 104.81 23.9222C105.657 22.8412 106.525 21.7688 107.414 20.705C108.321 19.6198 109.202 18.5767 110.055 17.5755C110.926 16.5529 111.764 15.623 112.568 14.7855C112.169 14.8131 111.531 14.8672 110.655 14.9478C109.778 15.0285 108.793 15.1266 107.698 15.2424C106.602 15.3382 105.516 15.4333 104.44 15.5277C103.363 15.6022 102.425 15.667 101.627 15.7222C101.248 15.7484 100.869 15.7746 100.489 15.8008C100.13 15.8256 99.7911 15.849 99.4719 15.8711C99.1526 15.8932 98.8833 15.9118 98.6638 15.927C98.4443 15.9421 98.3047 15.9518 98.2448 15.9559L98.1074 7.87616C98.8085 7.8678 99.729 7.84427 100.869 7.80557C102.009 7.76687 103.239 7.72196 104.559 7.67085C105.897 7.59841 107.215 7.52735 108.513 7.45766C109.832 7.3866 111.009 7.31521 112.047 7.2435C114.162 7.09733 116.347 6.94633 118.601 6.7905C120.876 6.63329 122.802 6.51019 124.38 6.4212C124.429 6.55811 124.486 6.94511 124.55 7.58221C124.633 8.19798 124.712 8.90422 124.787 9.70093C124.88 10.4763 124.951 11.2132 125 11.9115C125.066 12.5885 125.11 13.0667 125.129 13.346C124.436 14.0555 123.663 14.9008 122.808 15.8821C121.954 16.8633 121.063 17.8972 120.136 18.9837C119.228 20.0689 118.322 21.164 117.416 22.2691C116.51 23.3742 115.661 24.4352 114.869 25.4522C114.096 26.4479 113.406 27.3376 112.798 28.1214C112.211 28.9038 111.763 29.5361 111.456 30.0185C111.896 30.0081 112.646 29.9763 113.705 29.9232C114.762 29.8501 115.65 29.7887 116.368 29.7391C117.526 29.6591 118.761 29.5437 120.073 29.3928C121.406 29.2405 122.658 29.0838 123.83 28.9227C125.02 28.7402 126.012 28.5914 126.806 28.4764C126.82 28.6759 126.846 29.1954 126.884 30.0347C126.922 30.8741 126.957 31.8239 126.99 32.8842C127.024 33.9444 127.041 34.9155 127.041 35.7976C127.062 36.6782 127.052 37.2603 127.012 37.5438Z" stroke="#8B33AA" stroke-width="2" mask="url(#path-1-outside-1_69_55)" />
  <path d="M96.8048 48.1628C95.2624 48.112 93.2731 48.0073 90.837 47.8487C88.4008 47.6901 85.869 47.482 83.2416 47.2242C80.5944 46.9646 77.9917 46.659 75.4338 46.3076C72.8958 45.9582 70.7727 45.5791 69.0644 45.1704L70.2357 37.8397C70.6685 37.3195 71.2415 36.7025 71.9546 35.9887C72.6677 35.2749 73.4672 34.4992 74.3532 33.6617C75.2392 32.8242 76.1789 31.9518 77.1722 31.0444C78.1874 30.1191 79.2215 29.2057 80.2745 28.3042C81.3494 27.3847 82.3906 26.5022 83.3979 25.6565C84.4272 24.7928 85.4078 24.0148 86.3398 23.3225C85.9417 23.2835 85.3038 23.231 84.4261 23.1649C83.5483 23.0989 82.5601 23.0322 81.4615 22.9646C80.3648 22.8771 79.278 22.7906 78.2012 22.7051C77.1264 22.5996 76.1909 22.5079 75.3947 22.4298C75.0165 22.3927 74.6383 22.3556 74.2601 22.3185C73.9019 22.2833 73.5635 22.2501 73.245 22.2189C72.9265 22.1876 72.6578 22.1613 72.4389 22.1398C72.2199 22.1183 72.0806 22.1047 72.0209 22.0988L73.2267 14.1084C73.9195 14.2165 74.8312 14.3461 75.9618 14.4972C77.0925 14.6483 78.3127 14.8082 79.6225 14.9769C80.9541 15.1276 82.2659 15.2764 83.5577 15.4232C84.8694 15.572 86.0428 15.6971 87.0779 15.7986C89.1877 16.0056 91.3673 16.2194 93.6165 16.44C95.8856 16.6626 97.8054 16.861 99.3759 17.0351C99.402 17.1784 99.3938 17.5694 99.3512 18.2083C99.3305 18.8293 99.2911 19.5388 99.2329 20.3369C99.1965 21.1171 99.1442 21.8555 99.0759 22.5522C99.0294 23.2309 98.9925 23.7096 98.9651 23.9882C98.1643 24.5728 97.2611 25.278 96.2557 26.1038C95.2502 26.9296 94.2001 27.8013 93.1053 28.7188C92.0304 29.6382 90.9546 30.5676 89.8777 31.507C88.8009 32.4464 87.7876 33.3518 86.838 34.2232C85.9103 35.0767 85.0819 35.8395 84.3528 36.5115C83.6436 37.1855 83.0974 37.7348 82.7141 38.1594C83.15 38.2223 83.8945 38.3154 84.9475 38.4388C86.0024 38.5423 86.8882 38.6292 87.6047 38.6995C88.7592 38.8127 89.9962 38.9039 91.3157 38.9731C92.6552 39.0442 93.916 39.0975 95.0982 39.1331C96.3022 39.1507 97.3052 39.1687 98.1073 39.1871C98.0878 39.3861 98.027 39.9027 97.9251 40.7367C97.8232 41.5707 97.7006 42.5133 97.5573 43.5643C97.414 44.6153 97.2696 45.5758 97.124 46.4458C96.9982 47.3177 96.8919 47.89 96.8048 48.1628Z" stroke="#8B33AA" stroke-width="2" mask="url(#path-1-outside-1_69_55)" />
  <path d="M70.3345 33.6525C69.823 34.4226 69.1593 35.1767 68.3435 35.9146C67.5458 36.6307 66.5815 37.2819 65.4504 37.868C64.3375 38.4324 63.047 38.9228 61.579 39.3392C60.1309 39.7537 58.4907 40.0453 56.6585 40.214C53.6512 40.4908 50.9103 40.1708 48.4358 39.2538C45.9812 38.3349 43.9841 36.8217 42.4444 34.7139C40.9246 32.6044 40.0106 29.8767 39.7026 26.5309C39.3872 23.1053 39.7893 20.0556 40.9089 17.3817C42.0284 14.7078 43.7588 12.5601 46.1 10.9387C48.4394 9.29728 51.2621 8.3244 54.5681 8.02002C58.7504 7.63496 62.161 8.46578 64.7997 10.5125C67.4366 12.5393 68.972 15.5813 69.4058 19.6386C69.4773 20.4153 69.5107 21.1052 69.506 21.7082C69.5212 22.3093 69.4911 22.9648 69.4159 23.6747C69.1153 23.6823 68.4463 23.7238 67.4088 23.7992C66.3913 23.8728 65.2443 23.9583 63.9679 24.0558C62.6914 24.1532 61.5046 24.2424 60.4074 24.3233C59.3102 24.4043 58.5425 24.4649 58.1044 24.5052C56.4912 24.6538 54.9542 24.8656 53.4932 25.1407C52.0323 25.4158 50.8511 25.6751 49.9496 25.9188C49.9771 26.2176 50.0246 26.5145 50.0919 26.8095C50.1592 27.1046 50.2546 27.377 50.378 27.6267C50.6812 28.3018 51.1336 28.8526 51.7352 29.2793C52.3369 29.7059 53.048 30.012 53.8684 30.1976C54.6871 30.3632 55.5445 30.4048 56.4407 30.3223C57.1776 30.2544 57.8582 30.1215 58.4827 29.9234C59.1253 29.7035 59.7315 29.4167 60.3015 29.063C60.8715 28.7093 61.407 28.3085 61.908 27.8606C62.4091 27.4128 62.9056 26.9152 63.3974 26.3678C63.5261 26.4564 63.884 26.7448 64.4713 27.233C65.0585 27.7212 65.7274 28.3325 66.4779 29.0668C67.2483 29.7992 67.9825 30.5752 68.6806 31.3946C69.3967 32.1923 69.948 32.945 70.3345 33.6525ZM49.8068 19.7861C50.5308 19.5788 51.436 19.375 52.5222 19.1746C53.6283 18.9723 54.9182 18.8033 56.392 18.6676C57.2085 18.5925 57.9572 18.5436 58.638 18.5211C59.317 18.4787 59.7968 18.4546 60.0774 18.4488C60.0463 18.1103 59.9517 17.7374 59.7937 17.3301C59.5794 16.7473 59.2302 16.2272 58.7462 15.7696C58.2821 15.3102 57.7177 14.9605 57.0529 14.7204C56.3862 14.4605 55.6247 14.3699 54.7684 14.4487C53.6332 14.5532 52.6902 14.8911 51.9394 15.4624C51.2085 16.0318 50.6688 16.7141 50.3202 17.5094C49.9698 18.2848 49.7987 19.0437 49.8068 19.7861Z" stroke="#8B33AA" stroke-width="2" mask="url(#path-1-outside-1_69_55)" />
  <path d="M23.55 44.45C23.23 43.47 22.9 42.43 22.56 41.33C22.22 40.21 21.88 39.08 21.54 37.94C21.22 36.78 20.92 35.65 20.64 34.55C20.38 33.43 20.14 32.4 19.92 31.46C19.7 30.5 19.54 29.67 19.44 28.97L20.73 28.76C20.65 29.06 20.51 29.55 20.31 30.23C20.11 30.89 19.86 31.68 19.56 32.6C19.26 33.5 18.93 34.47 18.57 35.51C18.21 36.55 17.84 37.59 17.46 38.63C17.08 39.67 16.7 40.65 16.32 41.57C15.96 42.49 15.63 43.28 15.33 43.94L3.3 43.49C3.12 42.23 2.94 40.55 2.76 38.45C2.58 36.35 2.4 33.95 2.22 31.25C2.04 28.55 1.87 25.66 1.71 22.58C1.57 19.5 1.45 16.33 1.35 13.07C1.25 9.81001 1.2 6.57001 1.2 3.35001L12.96 3.80001C12.96 5.36001 12.93 7.17001 12.87 9.23001C12.83 11.29 12.77 13.43 12.69 15.65C12.63 17.87 12.57 20.03 12.51 22.13C12.45 24.23 12.39 26.11 12.33 27.77C12.29 29.41 12.26 30.67 12.24 31.55L11.64 32.24C11.86 31.66 12.12 30.88 12.42 29.9C12.72 28.9 13.03 27.79 13.35 26.57C13.69 25.33 14.03 24.04 14.37 22.7C14.71 21.34 15.02 20.01 15.3 18.71C15.6 17.41 15.84 16.21 16.02 15.11C16.22 13.99 16.35 13.05 16.41 12.29L24.18 12.11C24.2 12.55 24.27 13.33 24.39 14.45C24.53 15.55 24.71 16.86 24.93 18.38C25.15 19.88 25.38 21.45 25.62 23.09C25.88 24.73 26.14 26.31 26.4 27.83C26.68 29.35 26.94 30.69 27.18 31.85C27.44 33.01 27.67 33.84 27.87 34.34L26.4 34.4C26.76 32.38 27.08 29.99 27.36 27.23C27.64 24.47 27.87 21.62 28.05 18.68C28.25 15.72 28.39 12.91 28.47 10.25C28.57 7.59001 28.62 5.35001 28.62 3.53001L39.15 2.42001C39.15 5.84001 39 9.34001 38.7 12.92C38.42 16.48 38.05 19.94 37.59 23.3C37.13 26.64 36.66 29.71 36.18 32.51C35.72 35.31 35.29 37.67 34.89 39.59C34.51 41.49 34.24 42.76 34.08 43.4L23.55 44.45Z" stroke="#8B33AA" stroke-width="2" mask="url(#path-1-outside-1_69_55)" />
</svg>