<svg width="120" height="120" viewBox="0 0 120 120" fill="none" xmlns="http://www.w3.org/2000/svg">
<path d="M49.6471 23.5C45.2471 26.7 28.1471 22.5 20.1471 20C20.1471 23.6667 20.6471 33.6 22.6471 44C25.1471 57 18.5613 58.5 14.5613 53.5C10.5613 48.5 -0.938654 52.5 0.0613459 61.5C1.06135 70.5 9.64709 71 15.6471 69C21.6471 67 23.1471 71 21.1471 78.5C19.5471 84.5 19.728 95.8333 20.0614 100C23.5614 99 29.1471 99 44.1471 99.5C59.1471 100 56.6471 92.5 54.1471 89.5C51.6471 86.5 48.1471 80 56.6471 78.5C65.1471 77 68.6471 82.5 67.6471 88C66.6471 93.5 65.1471 98.5 77.1471 97C86.7471 95.8 96.4804 98.5 100.147 100C99.6471 96.3333 98.9471 86.9 100.147 78.5C101.647 68 98.6471 58.5 92.1471 64C85.6471 69.5 80.1471 62 80.1471 56C80.1471 50 83.6471 46 92.1471 50C100.647 54 101.647 44 100.147 36.5C98.9471 30.5 99.6471 23 100.147 20C89.1471 21 77.6471 24.5 70.1471 24C62.6471 23.5 62.1471 20.5 65.1471 14.5C68.1471 8.49999 62.6471 3.99999 57.6471 4.49999C52.6471 4.99999 49.6471 6.99999 49.6471 12C49.6471 17 55.1471 19.5 49.6471 23.5Z" fill="#C4ECC4"/>
<path d="M61.2036 69.0135C60.8429 68.2718 60.4677 67.4837 60.078 66.6491C59.6862 65.7986 59.2933 64.9403 58.8993 64.074C58.5189 63.1896 58.1577 62.3269 57.8156 61.4857C57.4871 60.6265 57.1844 59.8365 56.9073 59.1156C56.6281 58.3788 56.4106 57.7385 56.2548 57.1947L57.2542 56.8873C57.2236 57.1338 57.1662 57.5374 57.082 58.0982C56.9956 58.6431 56.8838 59.2965 56.7466 60.0584C56.6072 60.8044 56.4516 61.6092 56.28 62.4727C56.1083 63.3363 55.9288 64.2009 55.7413 65.0666C55.5537 65.9324 55.3597 66.7505 55.1591 67.5212C54.9743 68.2896 54.7991 68.9517 54.6335 69.5076L45.0505 70.4655C44.7702 69.4866 44.4439 68.1749 44.0718 66.5303C43.6997 64.8857 43.2948 63.0034 42.8571 60.8833C42.4194 58.7632 41.9689 56.4915 41.5055 54.068C41.058 51.6424 40.6165 49.1433 40.181 46.5707C39.7455 43.9981 39.3519 41.4358 39 38.884L48.369 37.9555C48.5395 39.1918 48.7135 40.6295 48.891 42.2686C49.0844 43.9056 49.2707 45.6081 49.4499 47.3762C49.6449 49.1421 49.8334 50.8604 50.0154 52.5313C50.1973 54.2021 50.3552 55.6985 50.489 57.0206C50.6365 58.3247 50.7504 59.3265 50.8307 60.0261L50.4306 60.6385C50.5416 60.1548 50.6624 59.5083 50.7931 58.6988C50.9216 57.8735 51.0459 56.96 51.1662 55.9582C51.3002 54.9383 51.4287 53.8788 51.5517 52.7797C51.6725 51.6648 51.7729 50.5769 51.8527 49.516C51.9484 48.453 52.0075 47.4758 52.0299 46.5843C52.066 45.6749 52.0664 44.9157 52.0309 44.3069L58.1689 43.3152C58.2329 43.6617 58.3736 44.2722 58.5911 45.1467C58.8222 46.0031 59.108 47.0216 59.4485 48.2022C59.7867 49.3669 60.1405 50.586 60.51 51.8595C60.8952 53.1308 61.2739 54.3545 61.6461 55.5307C62.0341 56.7047 62.3865 57.7383 62.7035 58.6313C63.0363 59.5222 63.3093 60.1549 63.5224 60.5293L62.364 60.7374C62.4286 59.0973 62.421 57.1682 62.3413 54.9503C62.2616 52.7324 62.1325 50.4486 61.9538 48.099C61.7889 45.7314 61.5928 43.4891 61.3655 41.3723C61.1541 39.2533 60.949 37.4727 60.7501 36.0303L68.9738 34C69.3475 36.7104 69.6111 39.5005 69.7646 42.3704C69.9317 45.2223 70.0165 48.0048 70.0192 50.7179C70.0196 53.4151 69.9826 55.8995 69.9081 58.1709C69.8495 60.4402 69.7667 62.3575 69.6595 63.9228C69.5659 65.4701 69.4907 66.5061 69.4339 67.0307L61.2036 69.0135Z" fill="#33AA3F"/>
</svg>
