<svg width="120" height="120" viewBox="0 0 120 120" fill="none" xmlns="http://www.w3.org/2000/svg">
<g clip-path="url(#clip0_85_23)">
<path d="M20.147 36.5C18.947 30.5 19.647 22.9999 20.147 19.9999C24.6184 20.1666 34.6613 20.5999 39.0613 20.9999C44.5613 21.4999 57.0613 22 50.0613 12.4999C43.0613 2.99995 53.5613 0.999949 57.0613 1.49995C60.5613 1.99995 66.5613 6.4999 63.5613 12.4999C60.5613 18.5 68.5613 23.5 78.5613 21.5C86.5613 19.9 96.2279 19.8333 100.061 19.9999C100.061 23.6666 99.8613 32.8 99.0613 40C98.0613 49 102.061 55.9999 108.561 50C115.061 44 120.061 44.5 120.061 55.5C120.061 66.5 110.061 61 106.561 59C103.061 57 98.5613 60 100.061 70C101.261 78 100.561 93.3333 100.061 99.9999C97.5613 98.5 94.5613 98 84.5613 98.5C72.9032 99.0829 64.5613 99 68.5613 88C72.5613 77 58.0613 76.4999 55.5613 78.4999C53.0613 80.5 49.0613 82 54.0613 89.5C59.0613 97 50.5613 102 38.5613 101.5C28.9613 101.1 22.2851 100.333 20.147 99.9999C19.647 96.3333 18.947 86.8999 20.147 78.4999C21.647 67.9999 18.647 58.5 12.147 64C5.64697 69.5 0.146973 62 0.146973 56C0.146973 50 3.64697 46 12.147 50C20.647 54 21.647 44 20.147 36.5Z" fill="#9CD8A9"/>
<path d="M68.1276 67.6793C66.3703 67.4161 64.6224 67.1538 62.8837 66.8922C61.162 66.6509 59.4218 66.4079 57.6629 66.1634C56.0698 65.9518 54.4589 65.7293 52.8302 65.4959C51.2202 65.2642 49.6101 65.0324 48 64.8006C48.1644 61.5735 48.3455 58.479 48.5434 55.5171C48.7428 52.5365 48.9542 49.7444 49.1776 47.1406C49.519 43.1606 49.8489 39.751 50.1674 36.9118C50.4875 34.054 50.7413 31.9681 50.929 30.654C54.5589 30.2721 57.9117 30.0632 60.9873 30.0273C64.0832 29.9744 66.6572 29.9984 68.7094 30.0995C70.7616 30.2006 72.0388 30.2727 72.541 30.3158C72.4261 31.6548 72.2655 32.9806 72.0593 34.2931C71.8732 35.5887 71.6529 36.9562 71.3983 38.3957L60.1603 38.3591C60.1087 38.5233 60.0553 38.8185 60 39.2446C59.9649 39.6538 59.9165 40.1087 59.8548 40.6092C59.8134 41.0928 59.7743 41.5484 59.7376 41.9762C59.7025 42.3854 59.677 42.6829 59.661 42.8689C60.1074 42.9072 60.6374 42.9527 61.2512 43.0053C61.8851 43.041 62.5655 43.0806 63.2925 43.1242C64.038 43.1694 64.7734 43.2232 65.4988 43.2854C66.2443 43.3306 66.9425 43.3811 67.5935 43.4369C68.2646 43.4758 68.8428 43.5066 69.3279 43.5295L68.4538 52.0821C68.2136 52.0428 67.7595 51.9851 67.0916 51.909C66.4438 51.816 65.6938 51.7142 64.8415 51.6036C63.9891 51.493 63.1368 51.3825 62.2845 51.2719C61.4507 51.1629 60.7092 51.0712 60.0598 50.9968C59.4291 50.9239 58.9928 50.8771 58.751 50.8564C58.7181 51.0222 58.6772 51.281 58.6282 51.6327C58.5995 51.9675 58.5575 52.348 58.5022 52.7741C58.4671 53.1833 58.4219 53.601 58.3667 54.0271C58.33 54.4549 58.2864 54.854 58.2359 55.2243C58.2056 55.5777 58.1808 55.866 58.1617 56.0892C58.3679 56.0881 59.001 56.1331 60.0611 56.224C61.1398 56.3165 62.2557 56.4122 63.4088 56.5111C64.2643 56.5845 65.0997 56.6749 65.9148 56.7823C66.7501 56.8727 67.5188 56.9761 68.2207 57.0925C68.9429 57.1919 69.5433 57.2903 70.0221 57.3875C69.9317 58.2229 69.8031 59.1767 69.6362 60.249C69.4692 61.3213 69.2845 62.3828 69.082 63.4333C68.8981 64.4854 68.7168 65.3973 68.5382 66.1688C68.3596 66.9404 68.2228 67.4439 68.1276 67.6793Z" fill="#33AA3F"/>
</g>
<defs>
<clipPath id="clip0_85_23">
<rect width="120" height="120" fill="white"/>
</clipPath>
</defs>
</svg>
