<svg width="120" height="120" viewBox="0 0 120 120" fill="none" xmlns="http://www.w3.org/2000/svg">
<path d="M19.0613 40.0001C19.8613 32.8001 20.0613 23.6667 20.0613 20C24.0613 20.6667 33.7613 21.7 40.5613 20.5C49.0613 19 50.5613 17 48.5613 11.5C46.5613 6 44.5613 0 54.5613 0C64.5613 0 63.5613 5.5 61.0613 11.5C58.5613 17.5 66.0613 20.5 75.5613 19C83.1613 17.8 95.0613 19.1667 100.061 20C100.395 24.6667 101.161 35.5 101.561 41.5C102.061 49 100.561 56 92.0613 51.5C83.5613 47 80.0613 52.5 80.0613 60C80.0613 67.5 92.0613 57 96.0613 60C100.061 63 102.061 63.5 100.561 75.5C99.3613 85.1 99.7279 96 100.061 100L99.9575 99.9717C98.0317 99.4458 92.7373 98 86.0613 98C77.5613 98 59.5613 104 63.5613 94C67.5613 84 61.5613 80 55.5613 81C49.5613 82 46.1622 87.5413 50.0613 93C52.5613 96.5 45.9866 99.3937 43.5613 100C41.5613 100.5 25.5613 103 20.0613 100C20.5613 93.3334 21.2613 78.0001 20.0613 70.0001C18.5613 60.0001 23.0613 57.0001 26.5613 59.0001C30.0613 61.0001 40.0613 66.5001 40.0613 55.5001C40.0613 44.5001 35.0613 44 28.5613 50C22.0613 56 18.0613 49.0001 19.0613 40.0001Z" fill="#C4ECC4"/>
<path d="M71.3542 71.8168C68.0632 72.1095 64.3835 72.3524 60.3153 72.5456C56.2674 72.7557 51.8105 72.8991 46.9449 72.9758C46.8684 72.3267 46.751 71.4282 46.5927 70.2804C46.4513 69.1123 46.3091 67.935 46.1661 66.7483C46.04 65.5414 45.9431 64.5568 45.8753 63.7944C46.4938 62.9523 47.2191 61.9414 48.0512 60.7618C48.8833 59.5821 49.7645 58.323 50.6949 56.9847C51.6237 55.6277 52.5432 54.2716 53.4534 52.9163C54.3821 51.5594 55.2415 50.2648 56.0314 49.0327C56.8214 47.8005 57.5029 46.7185 58.0759 45.7868C58.649 44.855 59.0466 44.1637 59.2689 43.7129C58.8041 43.7543 58.0349 43.8508 56.9615 44.0025C55.905 44.1339 54.7014 44.2972 53.3507 44.4923C51.9983 44.6688 50.6476 44.8639 49.2986 45.0776C47.9665 45.271 46.7924 45.4504 45.7764 45.6157C45.6727 45.0815 45.5675 44.4256 45.4608 43.6479C45.3542 42.8703 45.2695 42.1283 45.2066 41.4217C45.1372 40.6408 45.0803 39.8962 45.0361 39.188C45.0088 38.4596 45.0023 37.8605 45.0168 37.3907C45.8638 37.2216 47.0261 37.0152 48.5036 36.7713C49.9981 36.5072 51.6413 36.2299 53.4333 35.9394C55.2253 35.6488 57.0104 35.3869 58.7888 35.1538C60.584 34.9004 62.2068 34.7093 63.6571 34.5803C64.1033 34.5406 64.6712 34.4994 65.3608 34.4568C66.0488 34.3957 66.7097 34.3462 67.3435 34.3086C67.9959 34.2693 68.4725 34.2551 68.7733 34.2658C68.9312 34.7765 69.0618 35.402 69.1651 36.1424C69.2668 36.8643 69.3499 37.5878 69.4144 38.3129C69.4971 39.2426 69.5444 40.091 69.5565 40.8583C69.5871 41.624 69.5962 42.1479 69.5838 42.4301C69.1785 43.1408 68.641 44.0506 67.9713 45.1597C67.3202 46.267 66.5759 47.4858 65.7384 48.8159C64.9179 50.1257 64.0635 51.476 63.1752 52.8669C62.2869 54.2577 61.4224 55.5996 60.5816 56.8925C59.7578 58.1651 59.0069 59.3095 58.3289 60.3255C57.6509 61.3416 57.1128 62.1391 56.7145 62.718C57.0711 62.7237 57.5485 62.7187 58.1468 62.703C58.7637 62.6856 59.4727 62.6507 60.2739 62.5982C61.0734 62.527 61.9101 62.4526 62.784 62.3749C63.974 62.2691 65.246 62.1372 66.6 61.9793C67.9709 61.8011 69.341 61.6137 70.7103 61.4169C70.7938 61.9342 70.8946 62.6468 71.0129 63.5545C71.1497 64.4606 71.251 65.3887 71.3167 66.3386C71.4159 67.4542 71.4569 68.5468 71.4396 69.6166C71.4392 70.6661 71.4107 71.3995 71.3542 71.8168Z" fill="#33AA3F"/>
</svg>
