<svg width="120" height="120" viewBox="0 0 120 120" fill="none" xmlns="http://www.w3.org/2000/svg">
<path d="M21.5613 41.5C21.1613 35.5 20.3946 24.6666 20.0613 20C26.3946 21.6666 40.7613 24.6 47.5613 23C56.0613 21 58.0613 17.5 54.5613 12C51.0613 6.49996 59.5613 1.49996 64.5613 2.49996C69.5613 3.49996 73.0613 5.5 69.0613 13C65.0613 20.5 67.0613 23 77.0613 23C85.0613 23 95.7279 21 100.061 20C99.5613 25.5 99.0613 38.1 101.061 44.5C103.561 52.5 96.0613 54 91.5613 50C87.0613 46 80.5613 49.5 80.0613 56.5C79.5613 63.5 88.5613 59.5 95.5613 59.5C102.561 59.5 101.561 73 101.561 78C101.561 83 100.061 100 100.061 100C96.5613 100.5 87.7613 101 80.5613 99C71.5613 96.5 63.0613 96 65.5613 101.5C68.0613 107 74.5613 116 62.5613 115.5C50.5613 115 53.0613 105.5 54.0613 103.5C55.0613 101.5 53.0613 96 43.5613 97C34.0613 98 25.0613 101.5 20.0613 100C19.7279 96 19.3613 85.1 20.5613 75.5C22.0613 63.5 20.0613 63 16.0613 60C12.0613 57 0.0612793 67.5 0.0612793 60C0.0612793 52.5 3.56128 47 12.0613 51.5C20.5613 56 22.0613 49 21.5613 41.5Z" fill="#9CD8A9"/>
<path d="M67.1107 77.6047C63.8209 77.2995 60.1577 76.8754 56.1213 76.3322C52.1017 75.8094 47.692 75.1472 42.8922 74.3458C42.934 73.6935 42.9804 72.7886 43.0316 71.6311C43.103 70.4566 43.1753 69.2729 43.2485 68.0799C43.342 66.87 43.4241 65.8841 43.4948 65.122C44.2549 64.4052 45.1505 63.5415 46.1816 62.5311C47.2126 61.5207 48.3064 60.4411 49.4628 59.2923C50.6209 58.125 51.7697 56.9568 52.9092 55.7877C54.0673 54.6203 55.1459 53.5019 56.145 52.4322C57.1441 51.3626 58.0094 50.4212 58.741 49.6079C59.4725 48.7947 59.9883 48.1864 60.2881 47.7831C59.8235 47.7399 59.0495 47.6963 57.9663 47.652C56.9034 47.5909 55.6901 47.5346 54.3263 47.4831C52.9643 47.413 51.6006 47.3615 50.2351 47.3285C48.89 47.2787 47.7028 47.2436 46.6736 47.2231C46.6679 46.6789 46.6826 46.0148 46.7179 45.2307C46.7531 44.4466 46.8035 43.7014 46.869 42.9951C46.9414 42.2144 47.0197 41.4718 47.1038 40.7673C47.2082 40.0458 47.3099 39.4553 47.4087 38.9958C48.2723 38.9822 49.4528 38.9886 50.9501 39.015C52.4677 39.0246 54.134 39.0479 55.949 39.0851C57.764 39.1222 59.5671 39.1864 61.3583 39.2775C63.1699 39.3519 64.8005 39.4563 66.2503 39.5907C66.6964 39.6321 67.2624 39.694 67.9484 39.7764C68.6362 39.8402 69.2951 39.9107 69.9254 39.9879C70.5742 40.0668 71.0455 40.1387 71.3395 40.2034C71.4027 40.7342 71.4185 41.3731 71.3867 42.12C71.3566 42.8483 71.3079 43.5749 71.2407 44.2998C71.1545 45.2292 71.0481 46.0723 70.9217 46.8292C70.8138 47.5878 70.7284 48.1048 70.6653 48.3801C70.1386 49.0062 69.4459 49.8042 68.5873 50.7744C67.7473 51.7463 66.7955 52.811 65.7321 53.9683C64.6889 55.1089 63.6052 56.2831 62.4808 57.4911C61.3564 58.6991 60.2642 59.8632 59.2042 60.9834C58.1645 62.0867 57.2197 63.077 56.3697 63.9542C55.5197 64.8315 54.8466 65.5189 54.3506 66.0166C54.7003 66.0865 55.1708 66.1676 55.7621 66.26C56.372 66.3541 57.0757 66.4475 57.8732 66.5402C58.6725 66.6143 59.5089 66.6919 60.3825 66.773C61.572 66.8833 62.847 66.9828 64.2072 67.0715C65.5878 67.1433 66.9693 67.2059 68.3516 67.2591C68.3405 67.783 68.3113 68.502 68.264 69.4163C68.2353 70.3322 68.1677 71.2633 68.0611 72.2095C67.9577 73.3247 67.8011 74.4068 67.5913 75.4559C67.4018 76.4882 67.2416 77.2044 67.1107 77.6047Z" fill="#33AA3F"/>
</svg>
