<svg width="120" height="120" viewBox="0 0 120 120" fill="none" xmlns="http://www.w3.org/2000/svg">
<path d="M21.0613 44.5001C19.0613 38.1001 19.5613 25.5 20.0613 20C28.0613 19 45.2613 17.3 50.0613 18.5C56.0613 20 57.0613 25.5 55.0613 31.5C53.0613 37.5 61.0613 42 66.5613 40.5C72.0613 39 75.0613 35.5 69.5613 28C66.0008 23.1448 68.0613 19.2273 76.0613 18.5C84.0613 17.7727 89.5613 19 100.061 20C99.5613 24.6667 98.8613 35.8 100.061 43C101.561 52 102.561 60.5 95.0613 58C87.5613 55.5 80.0613 55 80.0613 65.5C80.0613 76 88.0613 75.5 94.0613 70.5C100.061 65.5 102.061 71.5 101.561 81.5C101.161 89.5 100.395 97.1667 100.061 100C94.2279 98.6667 80.5613 96.5 72.5613 98.5C62.5613 101 61.5613 104 64.0613 110C66.5613 116 62.5613 120 56.0613 120C49.5613 120 46.5613 115.5 50.0613 108.5C53.5613 101.5 49.5613 98.5 39.5613 98.5C31.5613 98.5 23.2279 99.5 20.0613 100C20.0613 100 21.5613 83.0001 21.5613 78.0001C21.5613 73.0001 22.5613 59.5001 15.5613 59.5001C8.56127 59.5001 -0.438728 63.5001 0.0612724 56.5001C0.561272 49.5001 7.06127 46.0001 11.5613 50.0001C16.0613 54.0001 23.5613 52.5001 21.0613 44.5001Z" fill="#C4ECC4"/>
<path d="M43.3966 81.9395C43.4417 80.9111 43.467 79.5192 43.4726 77.7636C43.4962 75.9889 43.4952 74.0094 43.4697 71.8252C43.4437 69.6224 43.3969 67.3455 43.3292 64.9945C43.2616 62.6434 43.1763 60.3303 43.0735 58.0549C42.9701 55.761 42.853 53.6355 42.7219 51.6784C42.6096 49.7208 42.497 48.0807 42.3843 46.7581C42.9979 46.6657 43.9655 46.5445 45.287 46.3944C46.6272 46.2438 48.0157 46.1479 49.4525 46.1065C50.1055 46.0877 50.8711 46.0844 51.7491 46.0964C52.6458 46.108 53.2539 46.1465 53.5732 46.212C53.616 47.0511 53.6386 48.1616 53.6411 49.5435C53.6616 50.9061 53.6694 52.4745 53.6644 54.2487C53.6589 56.0043 53.6385 57.891 53.6032 59.9088C53.5673 61.908 53.5238 63.9635 53.4725 66.0751C53.445 67.0657 53.4081 68.0565 53.3619 69.0476C53.3158 70.0386 53.2664 70.9177 53.2137 71.6849C54.7224 71.5481 56.157 71.4321 57.5175 71.337C58.8961 71.2226 60.2569 71.1368 61.5998 71.0794C62.9614 71.0216 64.3512 70.9723 65.7693 70.9315C65.8771 71.4326 65.9761 72.2794 66.0665 73.472C66.1749 74.6453 66.2671 75.9032 66.3431 77.2456C66.4378 78.5874 66.4993 79.7528 66.5278 80.7417C64.2418 81.1249 61.8975 81.4258 59.4948 81.6444C57.1108 81.8624 54.8365 82.0025 52.6721 82.0648C50.9373 82.1334 49.2572 82.1537 47.6317 82.1258C46.0249 82.0973 44.6132 82.0352 43.3966 81.9395Z" fill="#33AA3F"/>
</svg>
