<svg width="120" height="120" viewBox="0 0 120 120" fill="none" xmlns="http://www.w3.org/2000/svg">
<path d="M20.0613 43C18.8613 35.8 19.5613 24.6667 20.0613 20C26.3946 21.1667 40.4613 23.3 46.0613 22.5C53.0613 21.5 59.0613 18.5 53.0613 11.5C47.0613 4.50004 54.0613 -1.99996 62.0613 2.00004C70.0613 6.00004 61.5613 11.5 63.5613 17.5C65.5613 23.5 79.0613 23.5 86.5613 21C92.5613 19 98.0613 19.5 100.061 20C99.2279 23.5 98.0613 32.7 100.061 41.5C102.561 52.5 99.5613 65 90.5613 59.5C81.5613 54 80.0613 60.5 80.0613 64C80.0613 67.5 83.5613 76 90.5613 69.5C97.5613 63 103.061 67 102.061 78L100.061 100C93.0613 101.667 77.5613 104.7 71.5613 103.5C64.0613 102 63.5613 99.5 67.0613 92.5C70.5613 85.5 65.0613 83 60.0613 83C55.0613 83 50.5613 88 52.5613 93C54.5613 98 54.5613 103.5 42.0613 102.5C32.0613 101.7 23.2279 100.5 20.0613 100C20.3946 97.1667 21.1613 89.5 21.5613 81.5C22.0613 71.5 20.0613 65.5 14.0613 70.5C8.06128 75.5 0.0612793 76 0.0612793 65.5C0.0612793 55 7.56128 55.5 15.0613 58C22.5613 60.5 21.5613 52 20.0613 43Z" fill="#9CD8A9"/>
<path d="M69.3553 69.6231C67.5795 69.5621 65.813 69.5009 64.0558 69.4394C62.3178 69.3961 60.5612 69.3532 58.7859 69.311C57.1791 69.2825 55.5534 69.2452 53.9087 69.1992C52.2827 69.1526 50.6567 69.106 49.0307 69.0594C48.8258 65.8347 48.6527 62.7397 48.5114 59.7745C48.3695 56.7907 48.261 53.9927 48.1858 51.3804C48.0709 47.3874 48.0097 43.9624 48.0022 41.1055C47.9941 38.2298 48.0084 36.1286 48.0449 34.8016C51.6075 34.0082 54.9146 33.4181 57.9661 33.0315C61.0357 32.6257 63.5956 32.356 65.646 32.2223C67.6963 32.0886 68.9734 32.0145 69.4772 32C69.5158 33.3434 69.5076 34.6789 69.4524 36.0064C69.4153 37.3146 69.3524 38.6984 69.2637 40.1575L58.0949 41.4033C58.0624 41.5723 58.043 41.8716 58.0367 42.3013C58.0485 42.7118 58.0524 43.1692 58.0482 43.6736C58.0622 44.1587 58.0753 44.6158 58.0877 45.045C58.0995 45.4555 58.1081 45.754 58.1134 45.9406C58.5613 45.9277 59.093 45.9124 59.7088 45.8947C60.3426 45.8578 61.0232 45.8196 61.7503 45.78C62.4961 45.7398 63.2329 45.7093 63.9606 45.6883C64.7064 45.6482 65.4059 45.6187 66.0589 45.5999C66.7301 45.562 67.308 45.5267 67.7926 45.494L67.8999 54.0905C67.6568 54.0788 67.1991 54.0733 66.5269 54.074C65.8727 54.0555 65.116 54.0399 64.2566 54.0273C63.3972 54.0147 62.5378 54.002 61.6784 53.9894C60.8377 53.9763 60.0905 53.9697 59.4369 53.9699C58.802 53.9695 58.3632 53.9728 58.1207 53.9797C58.1068 54.1482 58.0957 54.41 58.0872 54.765C58.0969 55.1009 58.0986 55.4837 58.0923 55.9134C58.1041 56.3239 58.1068 56.744 58.1005 57.1736C58.1129 57.6028 58.1151 58.0042 58.1072 58.378C58.1174 58.7325 58.1257 59.0217 58.1321 59.2456C58.3369 59.221 58.971 59.1934 60.0346 59.1628C61.1168 59.1317 62.2363 59.0995 63.3932 59.0662C64.2515 59.0415 65.0917 59.036 65.9137 59.0497C66.7539 59.0442 67.5293 59.0592 68.24 59.0948C68.9688 59.1112 69.5765 59.1404 70.0633 59.1824C70.0688 60.0226 70.0498 60.9849 70.0063 62.0692C69.9628 63.1536 69.9004 64.2292 69.819 65.2959C69.7563 66.3622 69.6803 67.2888 69.5909 68.0757C69.5015 68.8626 69.4229 69.3784 69.3553 69.6231Z" fill="#33AA3F"/>
</svg>
