<svg width="120" height="120" viewBox="0 0 120 120" fill="none" xmlns="http://www.w3.org/2000/svg">
<path d="M20.0613 41.5C18.0613 32.7 19.2279 23.5 20.0613 20C28.8946 22.3334 47.1613 26.3 49.5613 23.5C52.5613 20 49.5613 18.5 49.5613 14.5C49.5613 10.5 50.5613 5.00009 59.5613 6.00004C68.5613 6.99999 65.5613 13.5001 63.0613 17.5C60.5613 21.5 62.0613 26.5 74.0613 22.5C86.0613 18.5 100.061 20 100.061 20C100.728 25.5 101.861 38.3 101.061 45.5C100.061 54.5 96.5613 58 90.5613 54C84.9027 50.2276 80.0613 52 80.0613 59.5C80.0613 67 87.0613 73.5 94.0613 67C101.061 60.5 102.561 73.5 101.561 84C100.761 92.4 100.228 98.1667 100.061 100C94.7279 98.3334 82.4613 94.2 74.0613 95C63.5613 96 60.5613 98.5 63.5613 106.5C66.5613 114.5 59.0613 117 53.0613 116C47.0613 115 45.0613 110.5 49.0613 104C53.0613 97.5 48.0613 94.5 38.5613 96C30.8897 97.2113 23.3946 99.3334 20.0613 100L22.0613 78C23.0613 67 17.5613 63 10.5613 69.5C3.56128 76 0.0612793 67.5 0.0612793 64C0.0612793 60.5 1.56128 54 10.5613 59.5C19.5613 65 22.5613 52.5 20.0613 41.5Z" fill="#C4ECC4"/>
<path d="M54.3634 78.2117C53.0795 78.1089 51.7509 77.8621 50.3778 77.4712C49.0031 77.099 47.6597 76.5701 46.3476 75.8845C45.0369 75.1803 43.8242 74.306 42.7093 73.2617C41.613 72.2188 40.7099 70.9855 40 69.5616C40.128 69.3659 40.4727 69.0377 41.0339 68.577C41.6152 68.0992 42.2833 67.5909 43.038 67.0521C43.8129 66.4962 44.5654 65.9853 45.2956 65.5194C46.0458 65.0364 46.6439 64.7004 47.0897 64.5114C47.7186 65.3108 48.3419 66.063 48.9596 66.7679C49.5974 67.4556 50.2598 68.0705 50.9467 68.6124C51.6336 69.1543 52.3567 69.5961 53.1158 69.9377C53.8951 70.2623 54.722 70.4596 55.5965 70.5296C56.5269 70.6041 57.2752 70.4955 57.8417 70.2038C58.4096 69.8935 58.8268 69.4775 59.0933 68.9557C59.3784 68.4355 59.544 67.887 59.5902 67.3102C59.6245 66.8822 59.5564 66.446 59.386 66.0017C59.2156 65.5573 58.9235 65.1126 58.5097 64.6675C58.0974 64.2038 57.5363 63.7281 56.8263 63.2405C56.1348 62.7545 55.2845 62.265 54.2753 61.7722C52.1155 60.6817 50.1439 59.5781 48.3607 58.4616C46.579 57.3264 45.185 56.0256 44.1788 54.5593C43.1913 53.0945 42.7809 51.3201 42.9478 49.2361C43.1266 47.0032 43.8997 45.1831 45.2671 43.7758C46.6545 42.3513 48.3937 41.3295 50.4844 40.7104C52.5938 40.0928 54.8207 39.8779 57.1652 40.0656C58.8212 40.1983 60.4359 40.4961 62.0093 40.9592C63.6013 41.4237 65.0925 42.0956 66.4827 42.9747C67.8931 43.8367 69.1229 44.9651 70.1723 46.36C69.8403 46.7641 69.2995 47.32 68.55 48.0278C67.819 48.7371 67.0416 49.4426 66.2176 50.1444C65.4122 50.8477 64.7211 51.4103 64.1442 51.8323C63.4067 50.9867 62.6037 50.2576 61.7351 49.645C60.8681 49.0138 59.9906 48.5128 59.1027 48.1421C58.2334 47.7728 57.3987 47.5562 56.5986 47.4921C55.631 47.4146 54.7688 47.5422 54.0118 47.8749C53.2548 48.2075 52.8428 48.7925 52.7758 49.6298C52.7474 49.9833 52.7951 50.3242 52.9186 50.6525C53.0607 50.9822 53.2795 51.29 53.575 51.5758C53.8704 51.8616 54.2411 52.1441 54.6869 52.4233C55.1327 52.7024 55.6637 52.9696 56.28 53.225C58.1615 54.0498 59.9298 54.8843 61.5851 55.7284C63.2589 56.5741 64.7191 57.515 65.9657 58.5511C67.2324 59.5701 68.185 60.77 68.8235 62.1507C69.462 63.5314 69.7053 65.1707 69.5533 67.0687C69.4043 68.9294 68.9159 70.585 68.0882 72.0356C67.2604 73.4861 66.1614 74.6996 64.791 75.676C63.4222 76.6338 61.8487 77.3411 60.0706 77.798C58.3126 78.2377 56.4101 78.3756 54.3634 78.2117Z" fill="#33AA3F"/>
</svg>
